<svg xmlns="http://www.w3.org/2000/svg" width="12" height="11" viewBox="0 0 12 11"><defs><style>.a{fill:none;}.b{fill:rgba(153,153,153,0.99);}</style></defs><g transform="translate(0 11) rotate(-90)"><rect class="a" width="11" height="11" transform="translate(0 1)"/><path class="b" d="M20.3,5.683l5.29,5.239a.256.256,0,0,0,.366,0l.55-.55a.256.256,0,0,0,0-.367L22.144,5.683a.256.256,0,0,1,0-.367L26.461.995a.256.256,0,0,0,0-.367l-.55-.55a.256.256,0,0,0-.366,0L20.312,5.317a.247.247,0,0,0-.011.367Z" transform="translate(-17.584 0)"/></g></svg>