<svg xmlns="http://www.w3.org/2000/svg" viewBox="0 0 240 80" fill="none" role="img" aria-label="World Cup 2026">
  <defs>
    <linearGradient id="gold" x1="0%" y1="0%" x2="100%" y2="100%">
      <stop offset="0%" stop-color="#fbbf24"/>
      <stop offset="50%" stop-color="#f59e0b"/>
      <stop offset="100%" stop-color="#d97706"/>
    </linearGradient>
  </defs>
  <g transform="translate(8, 8)">
    <path d="M28 4h8v10c0 8-4 14-12 16v6H16v-6C8 28 4 22 4 14V4h8v8h16V4z" fill="url(#gold)"/>
    <path d="M12 52h32v6H12v-6z" fill="url(#gold)"/>
    <path d="M8 58h40v4c0 2-2 4-4 4H12c-2 0-4-2-4-4v-4z" fill="url(#gold)"/>
    <ellipse cx="32" cy="14" rx="14" ry="4" fill="#fcd34d" opacity="0.5"/>
  </g>
  <text x="72" y="34" fill="#f8fafc" font-family="system-ui, sans-serif" font-size="22" font-weight="700" letter-spacing="0.04em">WORLD CUP</text>
  <text x="72" y="58" fill="#22c55e" font-family="system-ui, sans-serif" font-size="26" font-weight="800" letter-spacing="0.08em">2026</text>
</svg>
