<svg xmlns="http://www.w3.org/2000/svg" id="Logo.FIRST" width="142" height="29.295" viewBox="0 0 142 29.295">
  <path id="Path_1" data-name="Path 1" d="M499.478,77.969l-1.09,5.32,4.722,2.681,4.009-3.663-2.245-4.945Z" transform="translate(-365.119 -56.676)" fill="#ffffff"/>
  <path id="Path_2" data-name="Path 2" d="M293.5,11.786H277.209V5.721h19.758V0H276.71a5.22,5.22,0,0,0-5.22,5.22v7.292a5,5,0,0,0,5,5h16.122v6.065H271.771v5.721h21.507a5.22,5.22,0,0,0,5.22-5.22V16.782a5,5,0,0,0-5-5" transform="translate(-198.894 0)" fill="#ffffff"/>
  <path id="Path_3" data-name="Path 3" d="M410.763,0H381.749V5.721h11.612V29.294h5.791V5.721h11.612Z" transform="translate(-279.669 0)" fill="#ffffff"/>
  <rect id="Rectangle_20" data-name="Rectangle 20" width="5.791" height="29.294" transform="translate(28.79 0)" fill="#ffffff"/>
  <path id="Path_4" data-name="Path 4" d="M23.1,5.721V0H0V29.294H5.791V17.508H23.1V11.786H5.791V5.721Z" transform="translate(0 0)" fill="#ffffff"/>
  <path id="Path_5" data-name="Path 5" d="M166.268,17.509h7.684a5,5,0,0,0,5-5V5.872A5.872,5.872,0,0,0,173.075,0H150.607V29.294H156.4V17.509h.985l13.6,11.786h8.885Zm-9.87-5.721V5.721h16.964v6.066Z" transform="translate(-110.335 0)" fill="#ffffff"/>
</svg>