<?xml version="1.0" encoding="UTF-8"?>
<svg version="1.1" xmlns="http://www.w3.org/2000/svg" width="833" height="300">
<path d="M0 0 C0 7.26 0 14.52 0 22 C1.88203125 21.86078125 3.7640625 21.7215625 5.703125 21.578125 C27.84289744 20.4148237 27.84289744 20.4148237 34.26660156 25.42871094 C39.04736085 30.29130021 41.1700094 35.70705985 41.5 42.5 C41.31358243 49.05690789 39.14179139 53.38011196 34.625 58.0625 C34.13837891 58.56910156 33.65175781 59.07570312 33.15039062 59.59765625 C27.93945071 64.2237618 25.88709569 63 18 63 C18 55.41 18 47.82 18 40 C15.28523438 40.20882812 15.28523438 40.20882812 12.515625 40.421875 C-8.80600735 41.58293197 -8.80600735 41.58293197 -15.1965332 36.4699707 C-19.72596131 31.81445733 -21.844159 27.08178345 -22.5625 20.5625 C-21.83432617 11.64006627 -16.46142261 6.63740882 -10.1015625 0.95532227 C-8 0 -8 0 0 0 Z " fill="#FDFDFD" transform="translate(185,69)"/>
<path d="M0 0 C11.22 0 22.44 0 34 0 C34 4.62 34 9.24 34 14 C32.02 14 30.04 14 28 14 C28 25.22 28 36.44 28 48 C29.65 48 31.3 48 33 48 C36.54338194 51.54338194 34 57.98890121 34 63 C22.78 63 11.56 63 0 63 C0 58.38 0 53.76 0 49 C2.475 48.505 2.475 48.505 5 48 C5.33 36.78 5.66 25.56 6 14 C4.02 14 2.04 14 0 14 C0 9.38 0 4.76 0 0 Z " fill="#FEFEFE" transform="translate(367,156)"/>
<path d="M0 0 C0 7.26 0 14.52 0 22 C1.96582031 21.86078125 3.93164062 21.7215625 5.95703125 21.578125 C29.04046285 20.41394294 29.04046285 20.41394294 34.97900391 25.42871094 C39.84359831 30.93277418 41.54817217 37.4553816 41.38964844 44.68115234 C40.59269852 51.81337009 36.75369803 56.34053541 31.50390625 60.97265625 C28 63 28 63 19 63 C19 55.41 19 47.82 19 40 C17.20175781 40.15082031 15.40351562 40.30164063 13.55078125 40.45703125 C-7.68767296 41.71219941 -7.68767296 41.71219941 -14.55444336 36.0612793 C-19.1187508 31.34821734 -21.84404123 26.6195553 -22.625 20 C-21.80345785 11.49799408 -16.1318952 6.43521401 -10.1015625 0.97119141 C-8 0 -8 0 0 0 Z " fill="#FEFEFE" transform="translate(51,156)"/>
<path d="M0 0 C6.06089715 0.10805269 10.32098015 0.4447561 14.82617188 4.70776367 C16.8047949 6.97414746 18.57655048 9.35912871 20.30419922 11.82006836 C20.96419922 12.15006836 21.62419922 12.48006836 22.30419922 12.82006836 C22.62937332 17.99322275 22.86307505 23.16026413 23.01831055 28.34130859 C23.08308305 30.09659518 23.17135463 31.85119725 23.28491211 33.60400391 C23.83399291 42.30730731 24.1014434 49.80683937 18.27133179 56.78494263 C13.57784858 61.5807185 9.43239021 64.52340177 2.56591797 65.08959961 C0.37085534 65.0049236 -1.82262349 64.85230629 -4.00830078 64.63256836 C-5.14203125 64.57391602 -6.27576172 64.51526367 -7.44384766 64.45483398 C-10.19848379 64.3037358 -12.94842377 64.07060859 -15.69580078 63.82006836 C-15.69580078 59.20006836 -15.69580078 54.58006836 -15.69580078 49.82006836 C-10.41580078 49.82006836 -5.13580078 49.82006836 0.30419922 49.82006836 C0.30419922 37.94006836 0.30419922 26.06006836 0.30419922 13.82006836 C-4.97580078 13.82006836 -10.25580078 13.82006836 -15.69580078 13.82006836 C-15.79345703 4.54272461 -15.79345703 4.54272461 -15.69580078 1.82006836 C-12.68487929 -1.19085314 -4.03007725 0.08503398 0 0 Z " fill="#FEFEFE" transform="translate(337.69580078125,155.179931640625)"/>
<path d="M0 0 C6.6 0 13.2 0 20 0 C22.45013975 4.9002795 24.69642189 9.49376419 26.69921875 14.53515625 C27.18229492 15.74655273 27.66537109 16.95794922 28.16308594 18.20605469 C28.67141179 19.4914622 29.17954605 20.77694548 29.6875 22.0625 C30.21496751 23.39103065 30.74263905 24.7194803 31.27050781 26.04785156 C32.59725985 29.3897117 33.91917535 32.73346338 35.2399292 36.07769775 C36.41799807 39.05716286 37.60225853 42.03416812 38.78515625 45.01171875 C39.60731712 47.0909299 40.42896421 49.17034432 41.25 51.25 C41.63244873 52.21301025 42.01489746 53.17602051 42.40893555 54.16821289 C42.75351807 55.04598389 43.09810059 55.92375488 43.453125 56.828125 C43.75379883 57.5902832 44.05447266 58.35244141 44.36425781 59.13769531 C45 61 45 61 45 63 C37.74 63 30.48 63 23 63 C22.01 59.535 22.01 59.535 21 56 C10.605 56.495 10.605 56.495 0 57 C2.875 46.375 2.875 46.375 4 43 C7.63 43 11.26 43 15 43 C14.51007568 41.76846191 14.02015137 40.53692383 13.51538086 39.26806641 C11.70552675 34.71268808 9.90578754 30.1533712 8.10913086 25.59277344 C7.32902445 23.61674227 6.54615227 21.64180072 5.76049805 19.66796875 C4.63387616 16.83613179 3.51714972 14.0005682 2.40234375 11.1640625 C2.047202 10.27756012 1.69206024 9.39105774 1.32615662 8.47769165 C1.00574905 7.65699188 0.68534149 6.83629211 0.35522461 5.99072266 C-0.07446373 4.9048436 -0.07446373 4.9048436 -0.51283264 3.79702759 C-1 2 -1 2 0 0 Z " fill="#FDFEFE" transform="translate(423,69)"/>
<path d="M0 0 C6.93 0 13.86 0 21 0 C27.10949722 13.96456507 32.88816557 28.04181844 38.5625 42.1875 C38.92923828 43.09846436 39.29597656 44.00942871 39.67382812 44.94799805 C40.72514819 47.56148756 41.77157469 50.17687952 42.81640625 52.79296875 C43.13787125 53.59107468 43.45933624 54.3891806 43.7905426 55.21147156 C46 60.77020125 46 60.77020125 46 63 C38.74 63 31.48 63 24 63 C22 59 22 59 22 56 C15.07 56 8.14 56 1 56 C4 46 4 46 5 43 C8.63 43 12.26 43 16 43 C15.37955811 41.41916626 15.37955811 41.41916626 14.74658203 39.80639648 C13.20395694 35.8734145 11.66556986 31.93878607 10.12841797 28.00366211 C9.46419795 26.30497193 8.79884946 24.60672254 8.13232422 22.90893555 C7.17113647 20.45999009 6.21409947 18.0094564 5.2578125 15.55859375 C4.96190216 14.80726669 4.66599182 14.05593964 4.3611145 13.28184509 C4.08097504 12.56162674 3.80083557 11.84140839 3.51220703 11.09936523 C3.26793976 10.47537338 3.02367249 9.85138153 2.77200317 9.20848083 C1.71422558 6.18248091 0.88063309 3.08221582 0 0 Z " fill="#FEFEFE" transform="translate(178,156)"/>
<path d="M0 0 C0.83265381 0.00523682 1.66530762 0.01047363 2.52319336 0.01586914 C3.42231445 0.0190918 4.32143555 0.02231445 5.24780273 0.02563477 C6.66609375 0.03820312 6.66609375 0.03820312 8.11303711 0.05102539 C9.06243164 0.05553711 10.01182617 0.06004883 10.98999023 0.06469727 C13.3435708 0.0765243 15.69701292 0.09384445 18.05053711 0.11352539 C21.81278769 7.30320336 24.97188026 14.61748814 27.91381836 22.17602539 C28.35066452 23.28913086 28.78751068 24.40223633 29.2375946 25.54907227 C30.15153829 27.88103422 31.06319644 30.21389312 31.97265625 32.54760742 C33.37071619 36.13321998 34.77748853 39.7153267 36.18530273 43.29711914 C37.07448951 45.5690531 37.96317947 47.84118159 38.85131836 50.11352539 C39.27310867 51.18739502 39.69489899 52.26126465 40.12947083 53.36767578 C40.51374741 54.35630615 40.89802399 55.34493652 41.29394531 56.36352539 C41.63416214 57.23493164 41.97437897 58.10633789 42.3249054 59.00415039 C43.05053711 61.11352539 43.05053711 61.11352539 43.05053711 63.11352539 C35.79053711 63.11352539 28.53053711 63.11352539 21.05053711 63.11352539 C20.06053711 61.13352539 19.07053711 59.15352539 18.05053711 57.11352539 C11.45053711 57.11352539 4.85053711 57.11352539 -1.94946289 57.11352539 C1.92553711 44.23852539 1.92553711 44.23852539 3.05053711 43.11352539 C4.73237659 42.88065531 6.42177871 42.70088373 8.11303711 42.55102539 C9.03213867 42.46723633 9.95124023 42.38344727 10.89819336 42.29711914 C11.6084668 42.2365332 12.31874023 42.17594727 13.05053711 42.11352539 C12.60137939 40.97810303 12.15222168 39.84268066 11.68945312 38.67285156 C10.02442005 34.46320973 8.36043926 30.25315263 6.69677734 26.04296875 C5.97636182 24.22026391 5.25566034 22.39767206 4.53466797 20.57519531 C3.49884178 17.95675787 2.46404203 15.33791681 1.42944336 12.71899414 C1.10649796 11.90327438 0.78355255 11.08755463 0.45082092 10.24711609 C0.15058517 9.48655411 -0.14965057 8.72599213 -0.45898438 7.94238281 C-0.85536354 6.93977669 -0.85536354 6.93977669 -1.25975037 5.91691589 C-1.86606134 4.33159532 -2.41272699 2.7237331 -2.94946289 1.11352539 C-1.94946289 0.11352539 -1.94946289 0.11352539 0 0 Z " fill="#FDFDFD" transform="translate(116.949462890625,68.886474609375)"/>
<path d="M0 0 C7.55863227 -1.32225209 15.60246861 -2.51208362 23 0 C30.62975665 6.47682984 34.41045195 16.89731346 38 26 C40.31815116 23.85381229 41.86779898 21.73919493 43.41015625 18.98828125 C44.05887695 17.85229492 44.05887695 17.85229492 44.72070312 16.69335938 C45.62118912 15.0955538 46.51960115 13.49657774 47.41601562 11.89648438 C48.06280273 10.76629883 48.06280273 10.76629883 48.72265625 9.61328125 C49.11203369 8.92016846 49.50141113 8.22705566 49.90258789 7.51293945 C50.26473389 7.01366943 50.62687988 6.51439941 51 6 C51.66 6 52.32 6 53 6 C55.11616045 28.58757113 53.21974705 42.623052 39.60400391 61.21289062 C38.81002197 62.09750977 38.81002197 62.09750977 38 63 C37.34 63 36.68 63 36 63 C35.23429687 61.61554688 35.23429687 61.61554688 34.453125 60.203125 C30.17784795 52.51604064 25.79085643 44.90845575 21.25 37.375 C20.75419434 36.55217529 20.25838867 35.72935059 19.74755859 34.8815918 C18.71161036 33.16274727 17.67563982 31.44391618 16.63964844 29.72509766 C13.70394254 24.84595096 10.7849266 19.95705829 7.875 15.0625 C7.31844727 14.1329248 6.76189453 13.20334961 6.18847656 12.24560547 C5.66995117 11.37178223 5.15142578 10.49795898 4.6171875 9.59765625 C4.15940918 8.82945557 3.70163086 8.06125488 3.22998047 7.26977539 C1.94800347 4.9040469 0.95074553 2.51506325 0 0 Z " fill="#FDFDFD" transform="translate(317,69)"/>
<path d="M0 0 C0.66 0 1.32 0 2 0 C3.38609512 3.46726754 4.72773804 6.95018369 6.0625 10.4375 C6.45244141 11.41138672 6.84238281 12.38527344 7.24414062 13.38867188 C11.52398925 24.71322708 8.87016062 32.3240255 5.13427734 43.58691406 C4.49297974 45.52117428 3.86467292 47.45930438 3.23828125 49.3984375 C0.15154042 58.84845958 0.15154042 58.84845958 -1 60 C-2.59610982 60.09333705 -4.19633428 60.11745372 -5.79516602 60.11352539 C-6.81614883 60.11344986 -7.83713165 60.11337433 -8.88905334 60.11329651 C-9.9994548 60.10813522 -11.10985626 60.10297394 -12.25390625 60.09765625 C-13.38448959 60.0962413 -14.51507294 60.09482635 -15.67991638 60.09336853 C-19.30747065 60.08775019 -22.93496424 60.07519458 -26.5625 60.0625 C-29.01497307 60.05748736 -31.4674471 60.05292405 -33.91992188 60.04882812 C-39.94663813 60.0377748 -45.97330876 60.02049788 -52 60 C-52 55.71 -52 51.42 -52 47 C-48.7 47 -45.4 47 -42 47 C-42 44.36 -42 41.72 -42 39 C-35.4 39 -28.8 39 -22 39 C-21.505 47.415 -21.505 47.415 -21 56 C-20.32195312 54.13601562 -19.64390625 52.27203125 -18.9453125 50.3515625 C-12.79948693 33.49971102 -6.50452922 16.71738774 0 0 Z " fill="#FDFDFD" transform="translate(112,72)"/>
<path d="M0 0 C3.8125 0.8125 3.8125 0.8125 4.8125 1.8125 C4.90561889 3.31668739 4.92996028 4.82521356 4.92602539 6.33227539 C4.92594986 7.29319595 4.92587433 8.25411652 4.92579651 9.24415588 C4.92063522 10.288936 4.91547394 11.33371613 4.91015625 12.41015625 C4.9087413 13.47415146 4.90732635 14.53814667 4.90586853 15.63438416 C4.90025064 19.04795083 4.88769511 22.461453 4.875 25.875 C4.86998731 28.18294176 4.865424 30.49088455 4.86132812 32.79882812 C4.85027539 38.47007711 4.83299877 44.1412776 4.8125 49.8125 C10.4225 49.8125 16.0325 49.8125 21.8125 49.8125 C21.8125 54.4325 21.8125 59.0525 21.8125 63.8125 C17.55620841 64.13990705 13.32542468 64.3754124 9.0625 64.5625 C7.87527344 64.66304687 6.68804687 64.76359375 5.46484375 64.8671875 C-1.79543459 65.10522941 -6.66914288 63.86875716 -11.984375 58.984375 C-18.06029902 52.6678925 -18.87639554 45.97791738 -18.828125 37.48046875 C-18.80298828 36.6301709 -18.77785156 35.77987305 -18.75195312 34.90380859 C-18.68740928 32.30885277 -18.75143458 29.73873215 -18.828125 27.14453125 C-18.86570653 19.33417217 -18.44533091 13.21524061 -13.04003906 7.23193359 C-9.14073825 3.41597124 -5.75412903 0.12595245 0 0 Z " fill="#FDFEFE" transform="translate(497.1875,155.1875)"/>
<path d="M0 0 C3.51905207 -0.29261658 7.03497551 -0.46861829 10.5625 -0.625 C12.0484668 -0.75068359 12.0484668 -0.75068359 13.56445312 -0.87890625 C17.7067022 -1.0165225 20.74621688 -1.10697195 23.94946289 1.72119141 C25.86449907 4.38474427 27.42639619 7.12084689 29 10 C29.71163155 11.19195307 30.42965392 12.38010731 31.15307617 13.56494141 C33.58423969 17.5591152 35.94903154 21.59052454 38.3125 25.625 C39.99210017 28.47945613 41.67501255 31.33194551 43.359375 34.18359375 C43.76539444 34.8713942 44.17141388 35.55919464 44.58973694 36.26783752 C48.02895368 42.07974666 51.56348364 47.82723082 55.23364258 53.49658203 C57.21090853 56.58069457 58.6870632 59.58679515 60 63 C52.41490428 64.25325679 44.46053705 65.30395068 37 63 C31.62423271 58.75577177 29.13493761 51.98649255 26.38330078 45.89160156 C24.082672 41.08245097 21.18391746 36.6707893 18.3125 32.1875 C17.22478547 30.44332269 16.14008226 28.69726336 15.05859375 26.94921875 C14.54280762 26.11696777 14.02702148 25.2847168 13.49560547 24.42724609 C9.93808114 18.65367332 6.46913063 12.82693803 3 7 C2.42507813 6.0821875 1.85015625 5.164375 1.2578125 4.21875 C0 2 0 2 0 0 Z " fill="#FDFDFD" transform="translate(473,69)"/>
<path d="M0 0 C7.64352531 -1.84425508 15.53592901 -3.00563343 23 0 C29.36585409 5.88656922 33.07881984 14.24915582 36.90330505 21.92756653 C40.29394769 28.73069044 44.22610188 35.15283159 48.237854 41.60314941 C50.04174676 44.51304115 51.81249569 47.44254476 53.5859375 50.37109375 C54.1742334 51.33974365 54.7625293 52.30839355 55.36865234 53.30639648 C55.90699707 54.19528564 56.4453418 55.0841748 57 56 C57.56541504 56.89984619 58.13083008 57.79969238 58.71337891 58.72680664 C60 61 60 61 60 63 C52.40862828 64.3912164 44.45017183 65.49331037 37 63 C31.28781223 58.22506988 28.54799151 50.80996297 25.52441406 44.17822266 C23.00528545 38.92613805 19.89980365 34.05707003 16.8125 29.125 C15.64829627 27.21832845 14.48550494 25.31079368 13.32421875 23.40234375 C11.20337017 19.94252909 9.06203272 16.49717973 6.89453125 13.06640625 C6.18816528 11.94758057 6.18816528 11.94758057 5.4675293 10.80615234 C4.59712598 9.43256442 3.72253683 8.0616165 2.84301758 6.69384766 C0 2.21734987 0 2.21734987 0 0 Z " fill="#FEFEFE" transform="translate(410,156)"/>
<path d="M0 0 C19.36289093 -1.61006513 19.36289093 -1.61006513 24.66796875 1.62890625 C26.50885257 4.31523301 27.72289394 7.00329762 29 10 C30.02836871 11.84875862 31.11520532 13.65470876 32.20922852 15.46533203 C33.48989958 17.58680146 34.73398134 19.72711395 35.9765625 21.87109375 C39.65683957 28.16150539 43.48660476 34.360106 47.3125 40.5625 C47.9943335 41.66851562 48.67616699 42.77453125 49.37866211 43.9140625 C50.03358643 44.97496094 50.68851074 46.03585938 51.36328125 47.12890625 C51.98541504 48.13711426 52.60754883 49.14532227 53.24853516 50.18408203 C54.35167143 51.9576496 55.46460088 53.72519935 56.59130859 55.48388672 C60 60.80480009 60 60.80480009 60 63 C52.35647469 64.84425508 44.46407099 66.00563343 37 63 C30.63414591 57.11343078 26.92118016 48.75084418 23.09669495 41.07243347 C19.70605231 34.26930956 15.77389812 27.84716841 11.762146 21.39685059 C9.95825324 18.48695885 8.18750431 15.55745524 6.4140625 12.62890625 C5.8257666 11.66025635 5.2374707 10.69160645 4.63134766 9.69360352 C4.09300293 8.80471436 3.5546582 7.9158252 3 7 C2.43458496 6.10015381 1.86916992 5.20030762 1.28662109 4.27319336 C0 2 0 2 0 0 Z " fill="#FDFEFE" transform="translate(229,156)"/>
<path d="M0 0 C6.93 0 13.86 0 21 0 C21 20.79 21 41.58 21 63 C13.74 63 6.48 63 -1 63 C-1.02255449 54.9334741 -1.04091709 46.86697254 -1.05181217 38.80042362 C-1.05704014 35.05516963 -1.06413622 31.30993824 -1.07543945 27.56469727 C-1.08627141 23.95318313 -1.09227749 20.34169079 -1.09487724 16.73016167 C-1.09673094 15.34939671 -1.10035049 13.968633 -1.10573006 12.58787727 C-1.11294447 10.66024048 -1.11340809 8.73258193 -1.11352539 6.80493164 C-1.115746 5.70572891 -1.11796661 4.60652618 -1.12025452 3.47401428 C-1 1 -1 1 0 0 Z " fill="#FEFEFE" transform="translate(37,69)"/>
<path d="M0 0 C6.93 0 13.86 0 21 0 C21.7515672 15.19239412 22.10831787 30.35370695 22.125 45.5625 C22.12749756 46.37319946 22.12999512 47.18389893 22.13256836 48.01916504 C22.13841802 50.32662314 22.136993 52.63394693 22.1328125 54.94140625 C22.13479645 55.64127151 22.1367804 56.34113678 22.13882446 57.06221008 C22.11528836 61.88471164 22.11528836 61.88471164 21 63 C14.07 63 7.14 63 0 63 C0 42.21 0 21.42 0 0 Z " fill="#FEFEFE" transform="translate(299,156)"/>
<path d="M0 0 C6.93 0 13.86 0 21 0 C21 20.79 21 41.58 21 63 C14.07 63 7.14 63 0 63 C0 42.21 0 21.42 0 0 Z " fill="#FDFDFD" transform="translate(372,69)"/>
<path d="M0 0 C7.59 0 15.18 0 23 0 C23 15.51 23 31.02 23 47 C15.41 47 7.82 47 0 47 C0 31.49 0 15.98 0 0 Z " fill="#FDFEFE" transform="translate(113,172)"/>
<path d="M0 0 C7.59 0 15.18 0 23 0 C23.02290475 6.39042521 23.04283313 12.78070909 23.05493164 19.17114258 C23.05997308 21.34692873 23.06680607 23.52271147 23.07543945 25.69848633 C23.08751338 28.81853067 23.09323005 31.93853038 23.09765625 35.05859375 C23.10281754 36.03775253 23.10797882 37.01691132 23.11329651 38.02574158 C23.11340981 39.37702904 23.11340981 39.37702904 23.11352539 40.75561523 C23.115746 41.55281479 23.11796661 42.35001434 23.12025452 43.17137146 C23 45 23 45 22 46 C14.74 46 7.48 46 0 46 C0 30.82 0 15.64 0 0 Z " fill="#FDFDFD" transform="translate(247,86)"/>
<path d="M0 0 C3.41720633 3.86154894 4.99927666 8.43928228 6.8125 13.1875 C7.14958984 14.00025391 7.48667969 14.81300781 7.83398438 15.65039062 C10.20373664 21.86913508 10.05776935 25.75080762 8 32 C7.66299072 33.09868408 7.32598145 34.19736816 6.97875977 35.3293457 C5.8107325 39.08494887 4.59886407 42.82486854 3.375 46.5625 C2.95014112 47.87031942 2.52565909 49.17826132 2.1015625 50.48632812 C1.0714021 53.65875391 0.03620808 56.82954441 -1 60 C-7.93 60 -14.86 60 -22 60 C-21.27454339 55.64726034 -20.58270513 52.47700889 -19.06640625 48.46948242 C-18.66929443 47.41206345 -18.27218262 46.35464447 -17.86303711 45.2651825 C-17.43385986 44.13997696 -17.00468262 43.01477142 -16.5625 41.85546875 C-16.12236572 40.68993973 -15.68223145 39.52441071 -15.22875977 38.32356262 C-14.0627001 35.23998233 -12.89158172 32.15838401 -11.71838379 29.07751465 C-10.75921167 26.55400371 -9.80621745 24.02818014 -8.85334778 21.50228405 C-7.71779042 18.49385255 -6.57759348 15.48718358 -5.4375 12.48046875 C-4.79373413 10.77747871 -4.79373413 10.77747871 -4.13696289 9.04008484 C-3.73985107 7.99842667 -3.34273926 6.95676849 -2.93359375 5.88354492 C-2.58353271 4.96232346 -2.23347168 4.04110199 -1.87280273 3.09196472 C-1 1 -1 1 0 0 Z " fill="#FDFDFD" transform="translate(176,159)"/>
<path d="M0 0 C3.92424173 1.96212086 4.74685662 7.68774426 6.1875 11.625 C6.56841797 12.61113281 6.94933594 13.59726563 7.34179688 14.61328125 C7.69693359 15.57878906 8.05207031 16.54429688 8.41796875 17.5390625 C8.74563232 18.41771973 9.0732959 19.29637695 9.41088867 20.20166016 C10.66332689 26.15087143 8.61946692 31.62866084 6.71484375 37.24609375 C6.49429825 37.90207047 6.27375275 38.55804718 6.04652405 39.23390198 C5.34918801 41.30373666 4.64350868 43.37060953 3.9375 45.4375 C3.45972915 46.85072317 2.98251035 48.2641331 2.50585938 49.67773438 C1.34461644 53.12107211 0.1721039 56.56026858 -1 60 C-7.93 60 -14.86 60 -22 60 C-18.62472314 48.74907714 -18.62472314 48.74907714 -17.02294922 44.49023438 C-16.66602997 43.53644897 -16.30911072 42.58266357 -15.94137573 41.59997559 C-15.56626862 40.60792114 -15.1911615 39.6158667 -14.8046875 38.59375 C-14.21531906 37.023974 -14.21531906 37.023974 -13.61404419 35.42248535 C-12.79030318 33.23029416 -11.96499531 31.03869114 -11.13818359 28.84765625 C-9.86860899 25.48306271 -8.60382382 22.11669876 -7.33984375 18.75 C-6.53673344 16.61447985 -5.7333576 14.47905954 -4.9296875 12.34375 C-4.55053192 11.33550171 -4.17137634 10.32725342 -3.7807312 9.28845215 C-3.43011627 8.35988403 -3.07950134 7.43131592 -2.71826172 6.47460938 C-2.40976288 5.6564978 -2.10126404 4.83838623 -1.78341675 3.9954834 C-1 2 -1 2 0 0 Z " fill="#FDFDFD" transform="translate(420,72)"/>
<path d="M0 0 C1.25554688 -0.00128906 2.51109375 -0.00257813 3.8046875 -0.00390625 C4.46178711 -0.00181152 5.11888672 0.0002832 5.79589844 0.00244141 C7.80411335 0.00779016 9.81210459 0.00249559 11.8203125 -0.00390625 C13.07585938 -0.00261719 14.33140625 -0.00132812 15.625 0 C16.78644531 0.00112793 17.94789063 0.00225586 19.14453125 0.00341797 C21.8125 0.1328125 21.8125 0.1328125 22.8125 1.1328125 C22.91337212 3.64205403 22.95222032 6.12317634 22.9453125 8.6328125 C22.94674759 9.75913086 22.94674759 9.75913086 22.94821167 10.90820312 C22.94889338 12.49869877 22.94703972 14.08919717 22.94287109 15.6796875 C22.93752267 18.12245905 22.94281634 20.56504671 22.94921875 23.0078125 C22.94855797 24.54947957 22.9472768 26.09114653 22.9453125 27.6328125 C22.94733673 28.36822266 22.94936096 29.10363281 22.95144653 29.86132812 C22.92745161 35.01786089 22.92745161 35.01786089 21.8125 36.1328125 C20.39679877 36.21932861 18.976905 36.23986154 17.55859375 36.23046875 C16.7895874 36.22797119 16.02058105 36.22547363 15.22827148 36.22290039 C14.24544189 36.21379639 13.2626123 36.20469238 12.25 36.1953125 C9.135625 36.1746875 6.02125 36.1540625 2.8125 36.1328125 C2.8125 28.8728125 2.8125 21.6128125 2.8125 14.1328125 C-0.1575 14.1328125 -3.1275 14.1328125 -6.1875 14.1328125 C-7.1875 13.1328125 -7.1875 13.1328125 -7.3203125 10.4453125 C-7.31773437 9.3521875 -7.31515625 8.2590625 -7.3125 7.1328125 C-7.31507813 6.0396875 -7.31765625 4.9465625 -7.3203125 3.8203125 C-7.07335042 -1.17703788 -4.40605085 0.00427891 0 0 Z " fill="#FEFEFE" transform="translate(518.1875,182.8671875)"/>
<path d="M0 0 C10.84609772 10.84609772 20.88204359 26.72142306 21.1887207 42.26147461 C21.00922458 47.22244203 20.62598715 52.07393119 20 57 C13.4 57 6.8 57 0 57 C0 38.19 0 19.38 0 0 Z " fill="#FCFDFD" transform="translate(317,75)"/>
<path d="M0 0 C7.67211673 -0.02463993 15.34421065 -0.04283123 23.01635742 -0.05493164 C25.62866619 -0.05997377 28.24097211 -0.06680725 30.85327148 -0.07543945 C34.59880268 -0.08751036 38.34429672 -0.09322935 42.08984375 -0.09765625 C43.26586655 -0.10281754 44.44188934 -0.10797882 45.65354919 -0.11329651 C46.73459427 -0.11337204 47.81563934 -0.11344757 48.92944336 -0.11352539 C49.88652695 -0.115746 50.84361053 -0.11796661 51.82969666 -0.12025452 C54 0 54 0 55 1 C55.0989294 3.16480797 55.129711 5.33293785 55.125 7.5 C55.12886719 9.27890625 55.12886719 9.27890625 55.1328125 11.09375 C55 14 55 14 54 15 C52.31198015 15.09353163 50.62004793 15.11744791 48.92944336 15.11352539 C47.84839828 15.11344986 46.76735321 15.11337433 45.65354919 15.11329651 C43.889515 15.10555458 43.889515 15.10555458 42.08984375 15.09765625 C40.89267227 15.0962413 39.69550079 15.09482635 38.46205139 15.09336853 C34.62050934 15.08774979 30.77902457 15.07519411 26.9375 15.0625 C24.34049563 15.05748741 21.74349035 15.05292409 19.14648438 15.04882812 C12.76430068 15.03777427 6.38216007 15.02049708 0 15 C0 10.05 0 5.1 0 0 Z " fill="#FDFDFD" transform="translate(231,69)"/>
<path d="M0 0 C3.1822411 3.1822411 4.98509128 5.33788298 7.1640625 9.09765625 C8.01097656 10.54688477 8.01097656 10.54688477 8.875 12.02539062 C9.4525 13.02763672 10.03 14.02988281 10.625 15.0625 C11.78325714 17.05373281 12.94208612 19.04463314 14.1015625 21.03515625 C14.86460693 22.35592163 14.86460693 22.35592163 15.64306641 23.70336914 C16.70635464 25.50300073 17.84052323 27.26078485 19 29 C19.22705078 31.91088867 19.22705078 31.91088867 19.1953125 35.41796875 C19.18886719 36.67158203 19.18242187 37.92519531 19.17578125 39.21679688 C19.15902344 40.52712891 19.14226562 41.83746094 19.125 43.1875 C19.11496639 44.52277987 19.1058412 45.85806689 19.09765625 47.19335938 C19.07405367 50.46231645 19.03818219 53.73118071 19 57 C12.73 57 6.46 57 0 57 C0 38.19 0 19.38 0 0 Z " fill="#FEFEFE" transform="translate(410,162)"/>
<path d="M0 0 C18.15 0 36.3 0 55 0 C55 4.62 55 9.24 55 14 C51.66291547 14.83427113 49.33833331 15.12633833 45.97192383 15.12939453 C44.97441605 15.13254669 43.97690826 15.13569885 42.94917297 15.13894653 C41.8792662 15.1369223 40.80935944 15.13489807 39.70703125 15.1328125 C38.60526047 15.13376923 37.50348969 15.13472595 36.36833191 15.13571167 C34.0425104 15.13639168 31.71668699 15.13454988 29.39086914 15.13037109 C25.8158751 15.12500507 22.24100583 15.13033001 18.66601562 15.13671875 C16.40885389 15.13605824 14.15169223 15.13477763 11.89453125 15.1328125 C10.81855179 15.13483673 9.74257233 15.13686096 8.63398743 15.13894653 C7.15191048 15.13421829 7.15191048 15.13421829 5.63989258 15.12939453 C4.76593338 15.12859894 3.89197418 15.12780334 2.99153137 15.12698364 C1 15 1 15 0 14 C0 9.38 0 4.76 0 0 Z " fill="#FCFDFD" transform="translate(97,156)"/>
<path d="M0 0 C5.94 0 11.88 0 18 0 C18 18.81 18 37.62 18 57 C15.12961582 54.12961582 13.48818038 52.47790047 11.59765625 49.171875 C11.18193359 48.45386719 10.76621094 47.73585937 10.33789062 46.99609375 C9.91701172 46.25488281 9.49613281 45.51367188 9.0625 44.75 C8.22117677 43.28581151 7.37873137 41.82226725 6.53515625 40.359375 C5.91592285 39.25831421 5.91592285 39.25831421 5.28417969 38.13500977 C4.05384031 35.99730218 4.05384031 35.99730218 2.58300781 34.15991211 C-2.10978235 27.89925043 -1.60794765 21.64133118 -1.375 14.0625 C-1.36082031 12.81919922 -1.34664062 11.57589844 -1.33203125 10.29492188 C-1.1825667 1.1825667 -1.1825667 1.1825667 0 0 Z " fill="#FCFDFD" transform="translate(515,69)"/>
<path d="M0 0 C6.27 0 12.54 0 19 0 C19 18.81 19 37.62 19 57 C7.99171888 45.99171888 -0.84431238 31.91789614 -1.1184082 16.16381836 C-0.9488303 10.73767512 -0.582762 5.39864245 0 0 Z " fill="#FEFEFE" transform="translate(270,156)"/>
<path d="M0 0 C0.66 0 1.32 0 2 0 C3.65212118 2.57634253 5.18768898 5.14892584 6.6875 7.8125 C7.52247438 9.27863612 8.35975971 10.74345827 9.19921875 12.20703125 C9.63468018 12.98216064 10.0701416 13.75729004 10.51879883 14.5559082 C11.98579783 17.06553447 11.98579783 17.06553447 13.87768555 19.51245117 C19.48745691 27.20891819 19.87892257 33.33031164 19.4375 42.6875 C19.39012695 44.61625977 19.39012695 44.61625977 19.34179688 46.58398438 C19.26009526 49.72366056 19.13457103 52.86214526 19 56 C12.73 56 6.46 56 0 56 C0 37.52 0 19.04 0 0 Z " fill="#FDFDFD" transform="translate(473,76)"/>
<path d="M0 0 C10.58936134 10.58936134 19.82589772 25.99735499 20.16723633 41.14233398 C19.74274989 55.25725011 19.74274989 55.25725011 18 57 C12.06 57 6.12 57 0 57 C0 38.19 0 19.38 0 0 Z " fill="#FDFEFE" transform="translate(229,162)"/>
<path d="M0 0 C6.27 0 12.54 0 19 0 C19 18.81 19 37.62 19 57 C16.3351314 54.3351314 14.82812534 52.24645731 12.96875 49.03515625 C12.40542969 48.07029297 11.84210938 47.10542969 11.26171875 46.11132812 C10.68035156 45.10521484 10.09898437 44.09910156 9.5 43.0625 C8.34593342 41.07295063 7.18976057 39.08462118 6.03125 37.09765625 C5.52142578 36.21601807 5.01160156 35.33437988 4.48632812 34.42602539 C3.09105707 31.99616544 3.09105707 31.99616544 1.32885742 30.08862305 C-0.53764225 27.15496427 -0.34005888 24.93765109 -0.29296875 21.484375 C-0.28330078 20.23398438 -0.27363281 18.98359375 -0.26367188 17.6953125 C-0.2259668 15.74238281 -0.2259668 15.74238281 -0.1875 13.75 C-0.16719727 11.77386719 -0.16719727 11.77386719 -0.14648438 9.7578125 C-0.11112809 6.505034 -0.05732152 3.25246557 0 0 Z " fill="#FEFEFE" transform="translate(451,156)"/>
<path d="M0 0 C6.93 0 13.86 0 21 0 C21 2.31 21 4.62 21 7 C22.07121094 6.98839844 23.14242187 6.97679687 24.24609375 6.96484375 C25.64322743 6.95546701 27.04036299 6.94636669 28.4375 6.9375 C29.14455078 6.92912109 29.85160156 6.92074219 30.58007812 6.91210938 C32.38693559 6.90346412 34.19387603 6.94779989 36 7 C37 8 37 8 37.1328125 10.46875 C37.13023438 11.4690625 37.12765625 12.469375 37.125 13.5 C37.12886719 15.00046875 37.12886719 15.00046875 37.1328125 16.53125 C37 19 37 19 36 20 C15.2767244 22.69007175 15.2767244 22.69007175 7.80761719 18.88232422 C3.36142613 15.22171939 -0.30499644 9.80388938 -1 4 C-0.67 2.68 -0.34 1.36 0 0 Z " fill="#FDFEFD" transform="translate(31,199)"/>
<path d="M0 0 C24.21132311 -1.92691444 24.21132311 -1.92691444 30.17578125 2.42578125 C34.28399137 6.37279833 36.84561778 10.05438821 37.3046875 15.83984375 C37 19 37 19 36 20 C34.52347336 20.09880797 33.04232764 20.13079245 31.5625 20.1328125 C30.22058594 20.13474609 30.22058594 20.13474609 28.8515625 20.13671875 C27.91054688 20.13285156 26.96953125 20.12898438 26 20.125 C24.58847656 20.13080078 24.58847656 20.13080078 23.1484375 20.13671875 C22.25382813 20.13542969 21.35921875 20.13414062 20.4375 20.1328125 C19.61121094 20.13168457 18.78492188 20.13055664 17.93359375 20.12939453 C16 20 16 20 15 19 C15 17.02 15 15.04 15 13 C10.05 13 5.1 13 0 13 C0 8.71 0 4.42 0 0 Z " fill="#FEFEFE" transform="translate(504,156)"/>
<path d="M0 0 C0.89460937 -0.00128906 1.78921875 -0.00257812 2.7109375 -0.00390625 C3.65195313 -0.00003906 4.59296875 0.00382812 5.5625 0.0078125 C6.97402344 0.00201172 6.97402344 0.00201172 8.4140625 -0.00390625 C9.75597656 -0.00197266 9.75597656 -0.00197266 11.125 0 C11.95128906 0.00112793 12.77757812 0.00225586 13.62890625 0.00341797 C15.5625 0.1328125 15.5625 0.1328125 16.5625 1.1328125 C16.5625 3.4428125 16.5625 5.7528125 16.5625 8.1328125 C21.5125 8.1328125 26.4625 8.1328125 31.5625 8.1328125 C31.5625 12.0928125 31.5625 16.0528125 31.5625 20.1328125 C5.81935338 21.91378491 5.81935338 21.91378491 0.80078125 17.71875 C-1.37602264 14.93388023 -3.00056961 12.35334529 -4.4375 9.1328125 C-4.7675 8.8028125 -5.0975 8.4728125 -5.4375 8.1328125 C-5.5625 4.6328125 -5.5625 4.6328125 -5.4375 1.1328125 C-3.84812444 -0.45656306 -2.19850154 0.00300107 0 0 Z " fill="#FDFEFE" transform="translate(169.4375,111.8671875)"/>
<path d="M0 0 C23.15105285 -1.76168657 23.15105285 -1.76168657 29.109375 2.16796875 C32.58971723 5.19306955 35.71746977 8.39057679 36.23388672 13.16015625 C36.24462385 15.10830182 36.13195386 17.05629873 36 19 C32.85418577 19.02888514 29.70840531 19.04675923 26.5625 19.0625 C25.66466797 19.07087891 24.76683594 19.07925781 23.84179688 19.08789062 C22.56079102 19.09272461 22.56079102 19.09272461 21.25390625 19.09765625 C20.06776733 19.10551147 20.06776733 19.10551147 18.85766602 19.11352539 C17 19 17 19 16 18 C16 16.35 16 14.7 16 13 C10.72 13 5.44 13 0 13 C0 8.71 0 4.42 0 0 Z " fill="#FCFDFD" transform="translate(187,69)"/>
<path d="M0 0 C24.19091047 -1.76484903 24.19091047 -1.76484903 30.17578125 2.203125 C33.12122268 4.78236907 35.28659734 7.4520903 37 11 C37 13.31 37 15.62 37 18 C30.4 18 23.8 18 17 18 C17 16.02 17 14.04 17 12 C11.39 12 5.78 12 0 12 C0 8.04 0 4.08 0 0 Z " fill="#FEFEFE" transform="translate(53,156)"/>
<path d="M0 0 C0.79921875 0.01804687 1.5984375 0.03609375 2.421875 0.0546875 C3.02515625 0.07789062 3.6284375 0.10109375 4.25 0.125 C4.58 1.115 4.91 2.105 5.25 3.125 C-1.68 2.63 -1.68 2.63 -8.75 2.125 C-5.00631258 0.25315629 -3.9099209 -0.11499767 0 0 Z " fill="#F1F9F6" transform="translate(180.75,111.875)"/>
<path d="M0 0 C2.0625 1.75 2.0625 1.75 4 4 C3.75 6.25 3.75 6.25 3 8 C2.34 8 1.68 8 1 8 C0.67 8.99 0.34 9.98 0 11 C0 7.37 0 3.74 0 0 Z " fill="#F3F7F6" transform="translate(410,162)"/>
</svg>
